<svg width="40" height="40" viewBox="0 0 40 40" fill="none" xmlns="http://www.w3.org/2000/svg">
<circle cx="20" cy="20" r="20" fill="black"/>
<g clip-path="url(#clip0_1001_123)">
<path d="M33.0984 25.0572C32.5753 25.7968 31.3021 26.3228 31.3021 26.3228L21.8067 30.1562V27.328L28.7929 24.526C29.5845 24.2083 29.7095 23.7551 29.0614 23.5155C28.4179 23.276 27.2512 23.3437 26.4595 23.6666L21.8067 25.5155V22.578C22.8808 22.1718 23.9873 21.8697 25.3114 21.703C27.2049 21.4687 29.5197 21.7343 31.3392 22.5103C33.3854 23.2395 33.6169 24.3176 33.0984 25.0572ZM22.7095 20.2395V12.9999C22.7095 12.151 22.5706 11.3697 21.8623 11.1458C21.3206 10.9478 20.9827 11.5155 20.9827 12.3645V30.4843L16.6401 28.9322V7.33325C18.4873 7.71867 21.1771 8.63013 22.6216 9.177C26.3021 10.5989 27.5475 12.3697 27.5475 16.3541C27.5475 20.2343 25.4179 21.7083 22.7095 20.2395ZM8.66786 27.0312C6.566 26.3645 6.21415 24.9739 7.17249 24.177C8.05675 23.4374 9.566 22.8801 9.566 22.8801L15.7929 20.3905V23.2291L11.3114 25.0312C10.5197 25.3489 10.3993 25.802 11.0429 26.0416C11.6864 26.2812 12.853 26.2135 13.6447 25.8905L15.7929 25.0103V27.552C13.404 28.0364 11.0984 27.9322 8.66786 27.0312Z" fill="white"/>
</g>
<defs>
<clipPath id="clip0_1001_123">
<rect width="26.6667" height="26.6667" fill="white" transform="translate(6.6665 6.66663)"/>
</clipPath>
</defs>
</svg>
