<svg width="40" height="41" viewBox="0 0 40 41" fill="none" xmlns="http://www.w3.org/2000/svg">
<circle cx="20" cy="20.16" r="20" fill="black"/>
<path d="M25.9321 23.2929C28.2394 26.1211 29.3019 28.4388 28.7655 29.4752C28.354 30.2617 25.8124 31.7982 23.9426 32.3867C22.4009 32.8711 20.3801 33.0794 18.7134 32.9179C16.7238 32.7252 14.7082 32.0117 12.979 30.8867C11.5259 29.9388 11.1978 29.5482 11.1978 28.7721C11.1978 27.2148 12.9113 24.4857 15.8436 21.3711C17.5103 19.6054 19.828 17.5325 20.0832 17.5898C20.5728 17.6992 24.4738 21.5013 25.9321 23.2929ZM16.4894 14.2096C14.9426 12.8086 13.4634 11.4023 11.9894 10.9075C11.1978 10.6419 11.1405 10.6575 10.4946 11.3294C8.97381 12.9127 7.70819 15.4804 7.35402 17.7044C7.07277 19.4857 7.03631 19.9857 7.13527 20.8554C7.42694 23.4857 8.03631 25.3034 9.24465 27.1523C9.73944 27.9127 9.87485 28.0534 9.72902 27.6679C9.51027 27.095 9.7134 25.7148 10.2238 24.3346C10.9686 22.3034 13.0311 18.4544 16.4894 14.2096ZM32.7186 17.5169C31.8384 13.3502 29.203 10.7304 28.8332 10.7304C28.453 10.7304 27.5728 11.069 26.9582 11.4544C25.7446 12.2096 24.8228 13.0898 23.6092 14.2044C25.8176 16.9804 28.9321 21.4648 30.0103 24.7409C30.3644 25.819 30.5155 26.8815 30.3957 27.4648C30.3071 27.9075 30.3071 27.9075 30.4686 27.7044C30.7863 27.3034 31.5051 26.0742 31.7915 25.4388C32.1769 24.595 32.5728 23.345 32.7603 22.3815C32.9842 21.2096 32.9634 18.694 32.7186 17.5169ZM14.0259 8.95961C16.5103 8.8294 19.7394 10.7565 19.979 10.8034C20.0155 10.8086 20.5207 10.5846 21.104 10.2982C24.4321 8.67836 25.9999 8.9544 26.6978 8.98565C23.3696 6.93878 18.7446 6.38148 14.5155 8.37628C13.2967 8.9544 13.2655 8.99607 14.0259 8.95961Z" fill="white"/>
</svg>
