<svg width="40" height="40" viewBox="0 0 40 40" fill="none" xmlns="http://www.w3.org/2000/svg">
<circle cx="20" cy="20" r="20" fill="black"/>
<path d="M31.667 12.5599H7.66699C6.0123 12.5599 4.66699 13.8056 4.66699 15.3377V26.4488C4.66699 27.9809 6.0123 29.2266 7.66699 29.2266H13.3107C14.4451 29.2266 15.4857 28.632 15.992 27.6901L17.492 24.9124C17.9045 24.1528 18.7436 23.671 19.6623 23.671C20.5811 23.671 21.4201 24.1528 21.8326 24.9124L23.3326 27.6901C23.8389 28.632 24.8795 29.2266 26.0139 29.2266H31.667C33.3217 29.2266 34.667 27.9809 34.667 26.4488V15.3377C34.667 13.8056 33.3217 12.5599 31.667 12.5599ZM9.16699 20.1988C9.16699 19.4621 9.48306 18.7556 10.0457 18.2346C10.6083 17.7137 11.3713 17.421 12.167 17.421C12.9626 17.421 13.7257 17.7137 14.2883 18.2346C14.8509 18.7556 15.167 19.4621 15.167 20.1988C15.167 20.9355 14.8509 21.6421 14.2883 22.163C13.7257 22.6839 12.9626 22.9766 12.167 22.9766C11.3713 22.9766 10.6083 22.6839 10.0457 22.163C9.48306 21.6421 9.16699 20.9355 9.16699 20.1988ZM27.167 17.421C27.9626 17.421 28.7257 17.7137 29.2883 18.2346C29.8509 18.7556 30.167 19.4621 30.167 20.1988C30.167 20.9355 29.8509 21.6421 29.2883 22.163C28.7257 22.6839 27.9626 22.9766 27.167 22.9766C26.3713 22.9766 25.6083 22.6839 25.0457 22.163C24.4831 21.6421 24.167 20.9355 24.167 20.1988C24.167 19.4621 24.4831 18.7556 25.0457 18.2346C25.6083 17.7137 26.3713 17.421 27.167 17.421Z" fill="white"/>
</svg>
